<svg xmlns="http://www.w3.org/2000/svg" width="1200" height="760" viewBox="0 0 1200 760">
  <rect width="1200" height="760" fill="#eef4ea"/>
  <text x="60" y="55" font-family="Arial" font-size="32" font-weight="bold" fill="#26372b">EcoDash - Application Wireframe</text>
  <rect x="60" y="85" width="1080" height="80" rx="12" fill="white" stroke="#26372b" stroke-width="3"/>
  <text x="90" y="120" font-family="Arial" font-size="26" font-weight="bold">EcoDash</text>
  <text x="90" y="148" font-family="Arial" font-size="15">African Digital Logistics &amp; Infrastructure Simulator</text>
  <rect x="820" y="108" width="270" height="34" rx="17" fill="#26372b"/>
  <text x="955" y="131" text-anchor="middle" font-family="Arial" font-size="13" fill="white">WAS262 • Canvas Simulation</text>

  <rect x="60" y="190" width="1080" height="70" rx="10" fill="white" stroke="#999"/>
  <g font-family="Arial" font-size="14">
    <rect x="80" y="207" width="115" height="35" rx="6" fill="#eef4ea"/><text x="137" y="230" text-anchor="middle">Score</text>
    <rect x="205" y="207" width="115" height="35" rx="6" fill="#eef4ea"/><text x="262" y="230" text-anchor="middle">Battery</text>
    <rect x="330" y="207" width="115" height="35" rx="6" fill="#eef4ea"/><text x="387" y="230" text-anchor="middle">Distance</text>
    <rect x="455" y="207" width="115" height="35" rx="6" fill="#eef4ea"/><text x="512" y="230" text-anchor="middle">Efficiency</text>
    <rect x="580" y="207" width="115" height="35" rx="6" fill="#eef4ea"/><text x="637" y="230" text-anchor="middle">Weather</text>
    <rect x="705" y="207" width="115" height="35" rx="6" fill="#eef4ea"/><text x="762" y="230" text-anchor="middle">Solar Power</text>
    <rect x="830" y="207" width="115" height="35" rx="6" fill="#eef4ea"/><text x="887" y="230" text-anchor="middle">High Score</text>
    <rect x="965" y="207" width="145" height="35" rx="6" fill="#26372b"/><text x="1037" y="230" text-anchor="middle" fill="white">Pause</text>
  </g>

  <rect x="60" y="285" width="1080" height="370" rx="12" fill="#d8c48f" stroke="#26372b" stroke-width="4"/>
  <text x="90" y="315" font-family="Arial" font-size="14" font-weight="bold">MAIN CANVAS / SIMULATION AREA</text>
  <rect x="60" y="400" width="260" height="55" fill="#6ba4c1" opacity=".9"/>
  <text x="190" y="433" text-anchor="middle" font-family="Arial" font-size="14">River / Flood Area</text>
  <rect x="60" y="500" width="210" height="90" fill="#b66e3b"/>
  <text x="165" y="550" text-anchor="middle" font-family="Arial" font-size="14">Rural Village</text>
  <rect x="330" y="390" width="580" height="110" fill="#756d5c"/>
  <text x="620" y="450" text-anchor="middle" font-family="Arial" font-size="18" fill="white">ROAD / DELIVERY ROUTE</text>
  <circle cx="270" cy="585" r="50" fill="#f5cf4a" opacity=".55" stroke="#b18b00" stroke-width="3"/>
  <text x="270" y="590" text-anchor="middle" font-family="Arial" font-size="13">SOLAR ZONE</text>
  <rect x="950" y="390" width="130" height="115" fill="#f2eee2" stroke="#c0392b" stroke-width="3"/>
  <text x="1015" y="450" text-anchor="middle" font-family="Arial" font-size="14">RURAL</text>
  <text x="1015" y="470" text-anchor="middle" font-family="Arial" font-size="14">CLINIC</text>
  <rect x="520" y="515" width="75" height="55" rx="10" fill="#3a2b25"/>
  <text x="557" y="548" text-anchor="middle" font-family="Arial" font-size="12" fill="white">POTHOLE</text>
  <circle cx="700" cy="575" r="30" fill="#2e6b38"/>
  <text x="700" y="620" text-anchor="middle" font-family="Arial" font-size="12">TREE</text>
  <rect x="805" y="330" width="90" height="45" fill="#5a9fc0"/>
  <text x="850" y="358" text-anchor="middle" font-family="Arial" font-size="12" fill="white">FLOOD</text>
  <rect x="970" y="560" width="130" height="70" fill="white" stroke="#26372b"/>
  <text x="1035" y="585" text-anchor="middle" font-family="Arial" font-size="11">MINI-MAP</text>
  <circle cx="1000" cy="610" r="4" fill="#26372b"/>

  <rect x="60" y="675" width="1080" height="50" rx="8" fill="white" stroke="#999"/>
  <text x="600" y="707" text-anchor="middle" font-family="Arial" font-size="15" font-weight="bold">MESSAGE / MISSION STATUS: Deliver medical supplies to the clinic.</text>
</svg>
